<svg width="112" height="24" viewBox="0 0 112 24" fill="none" xmlns="http://www.w3.org/2000/svg">
<g clip-path="url(#clip0_35_4)">
<path d="M15.7857 2C15.1786 2 10.9286 3.25 10.9286 8.875V13.25C10.9286 14.6289 12.0176 15.75 13.3571 15.75H14.5714V20.75C14.5714 21.4414 15.1141 22 15.7857 22C16.4574 22 17 21.4414 17 20.75V15.75V11.375V3.25C17 2.55859 16.4574 2 15.7857 2ZM2.42857 2.625C2.42857 2.30469 2.1971 2.03906 1.88594 2.00391C1.57478 1.96875 1.29777 2.17969 1.22946 2.48828L0.0796875 7.8125C0.0265625 8.05859 0 8.30859 0 8.55859C0 10.3516 1.33192 11.8242 3.03571 11.9844V20.75C3.03571 21.4414 3.57835 22 4.25 22C4.92165 22 5.46429 21.4414 5.46429 20.75V11.9844C7.16808 11.8242 8.5 10.3516 8.5 8.55859C8.5 8.30859 8.47344 8.05859 8.42031 7.8125L7.27054 2.48828C7.20223 2.17578 6.91763 1.96875 6.61027 2.00391C6.3029 2.03906 6.07143 2.30469 6.07143 2.625V7.86719C6.07143 8.07812 5.90446 8.25 5.69955 8.25C5.50603 8.25 5.34665 8.09766 5.32768 7.89844L4.85335 2.57031C4.82679 2.24609 4.56496 2 4.25 2C3.93504 2 3.67321 2.24609 3.64665 2.57031L3.17612 7.89844C3.15714 8.09766 2.99777 8.25 2.80424 8.25C2.59933 8.25 2.43237 8.07812 2.43237 7.86719V2.625H2.42857ZM4.26138 8.5625H4.25H4.23862L4.25 8.53516L4.26138 8.5625Z" fill="black"/>
</g>
<path d="M30.976 18L28.416 13.552H27.024V18H25.2V6.88H29.04C29.8933 6.88 30.6133 7.02933 31.2 7.328C31.7973 7.62667 32.24 8.02667 32.528 8.528C32.8267 9.02933 32.976 9.58933 32.976 10.208C32.976 10.9333 32.7627 11.5947 32.336 12.192C31.92 12.7787 31.2747 13.1787 30.4 13.392L33.152 18H30.976ZM27.024 12.096H29.04C29.7227 12.096 30.2347 11.9253 30.576 11.584C30.928 11.2427 31.104 10.784 31.104 10.208C31.104 9.632 30.9333 9.184 30.592 8.864C30.2507 8.53333 29.7333 8.368 29.04 8.368H27.024V12.096ZM43.3894 13.376C43.3894 13.7067 43.368 14.0053 43.3254 14.272H36.5894C36.6427 14.976 36.904 15.5413 37.3734 15.968C37.8427 16.3947 38.4187 16.608 39.1014 16.608C40.0827 16.608 40.776 16.1973 41.1814 15.376H43.1494C42.8827 16.1867 42.3974 16.8533 41.6934 17.376C41 17.888 40.136 18.144 39.1014 18.144C38.2587 18.144 37.5014 17.9573 36.8294 17.584C36.168 17.2 35.6454 16.6667 35.2614 15.984C34.888 15.2907 34.7014 14.4907 34.7014 13.584C34.7014 12.6773 34.8827 11.8827 35.2454 11.2C35.6187 10.5067 36.136 9.97333 36.7974 9.6C37.4694 9.22667 38.2374 9.04 39.1014 9.04C39.9334 9.04 40.6747 9.22133 41.3254 9.584C41.976 9.94667 42.4827 10.4587 42.8454 11.12C43.208 11.7707 43.3894 12.5227 43.3894 13.376ZM41.4854 12.8C41.4747 12.128 41.2347 11.5893 40.7654 11.184C40.296 10.7787 39.7147 10.576 39.0214 10.576C38.392 10.576 37.8534 10.7787 37.4054 11.184C36.9574 11.5787 36.6907 12.1173 36.6054 12.8H41.4854ZM44.5764 13.584C44.5764 12.6773 44.7577 11.8827 45.1204 11.2C45.4937 10.5067 46.0057 9.97333 46.6564 9.6C47.307 9.22667 48.0537 9.04 48.8964 9.04C49.963 9.04 50.843 9.296 51.5364 9.808C52.2404 10.3093 52.715 11.0293 52.9604 11.968H50.9924C50.8324 11.5307 50.5764 11.1893 50.2244 10.944C49.8724 10.6987 49.4297 10.576 48.8964 10.576C48.1497 10.576 47.5524 10.8427 47.1044 11.376C46.667 11.8987 46.4484 12.6347 46.4484 13.584C46.4484 14.5333 46.667 15.2747 47.1044 15.808C47.5524 16.3413 48.1497 16.608 48.8964 16.608C49.9524 16.608 50.651 16.144 50.9924 15.216H52.9604C52.7044 16.112 52.2244 16.8267 51.5204 17.36C50.8164 17.8827 49.9417 18.144 48.8964 18.144C48.0537 18.144 47.307 17.9573 46.6564 17.584C46.0057 17.2 45.4937 16.6667 45.1204 15.984C44.7577 15.2907 44.5764 14.4907 44.5764 13.584ZM55.7061 8.016C55.3755 8.016 55.0981 7.904 54.8741 7.68C54.6501 7.456 54.5381 7.17867 54.5381 6.848C54.5381 6.51733 54.6501 6.24 54.8741 6.016C55.0981 5.792 55.3755 5.68 55.7061 5.68C56.0261 5.68 56.2981 5.792 56.5221 6.016C56.7461 6.24 56.8581 6.51733 56.8581 6.848C56.8581 7.17867 56.7461 7.456 56.5221 7.68C56.2981 7.904 56.0261 8.016 55.7061 8.016ZM56.6021 9.184V18H54.7781V9.184H56.6021ZM60.8209 10.48C61.1302 10.0747 61.5515 9.73333 62.0849 9.456C62.6182 9.17867 63.2209 9.04 63.8929 9.04C64.6609 9.04 65.3595 9.232 65.9889 9.616C66.6289 9.98933 67.1302 10.5173 67.4929 11.2C67.8555 11.8827 68.0369 12.6667 68.0369 13.552C68.0369 14.4373 67.8555 15.232 67.4929 15.936C67.1302 16.6293 66.6289 17.1733 65.9889 17.568C65.3595 17.952 64.6609 18.144 63.8929 18.144C63.2209 18.144 62.6235 18.0107 62.1009 17.744C61.5782 17.4667 61.1515 17.1253 60.8209 16.72V22.192H58.9969V9.184H60.8209V10.48ZM66.1809 13.552C66.1809 12.944 66.0529 12.4213 65.7969 11.984C65.5515 11.536 65.2209 11.2 64.8049 10.976C64.3995 10.7413 63.9622 10.624 63.4929 10.624C63.0342 10.624 62.5969 10.7413 62.1809 10.976C61.7755 11.2107 61.4449 11.552 61.1889 12C60.9435 12.448 60.8209 12.976 60.8209 13.584C60.8209 14.192 60.9435 14.7253 61.1889 15.184C61.4449 15.632 61.7755 15.9733 62.1809 16.208C62.5969 16.4427 63.0342 16.56 63.4929 16.56C63.9622 16.56 64.3995 16.4427 64.8049 16.208C65.2209 15.9627 65.5515 15.6107 65.7969 15.152C66.0529 14.6933 66.1809 14.16 66.1809 13.552ZM77.9206 13.376C77.9206 13.7067 77.8993 14.0053 77.8566 14.272H71.1206C71.174 14.976 71.4353 15.5413 71.9046 15.968C72.374 16.3947 72.95 16.608 73.6326 16.608C74.614 16.608 75.3073 16.1973 75.7126 15.376H77.6806C77.414 16.1867 76.9286 16.8533 76.2246 17.376C75.5313 17.888 74.6673 18.144 73.6326 18.144C72.79 18.144 72.0326 17.9573 71.3606 17.584C70.6993 17.2 70.1766 16.6667 69.7926 15.984C69.4193 15.2907 69.2326 14.4907 69.2326 13.584C69.2326 12.6773 69.414 11.8827 69.7766 11.2C70.15 10.5067 70.6673 9.97333 71.3286 9.6C72.0006 9.22667 72.7686 9.04 73.6326 9.04C74.4646 9.04 75.206 9.22133 75.8566 9.584C76.5073 9.94667 77.014 10.4587 77.3766 11.12C77.7393 11.7707 77.9206 12.5227 77.9206 13.376ZM76.0166 12.8C76.006 12.128 75.766 11.5893 75.2966 11.184C74.8273 10.7787 74.246 10.576 73.5526 10.576C72.9233 10.576 72.3846 10.7787 71.9366 11.184C71.4886 11.5787 71.222 12.1173 71.1366 12.8H76.0166ZM86.4196 15.728H81.7636L80.9636 18H79.0596L83.0436 6.864H85.1556L89.1396 18H87.2196L86.4196 15.728ZM85.9076 14.24L84.0996 9.072L82.2756 14.24H85.9076ZM92.6959 10.48C93.0052 10.0747 93.4265 9.73333 93.9599 9.456C94.4932 9.17867 95.0959 9.04 95.7679 9.04C96.5359 9.04 97.2345 9.232 97.8639 9.616C98.5039 9.98933 99.0052 10.5173 99.3679 11.2C99.7305 11.8827 99.9119 12.6667 99.9119 13.552C99.9119 14.4373 99.7305 15.232 99.3679 15.936C99.0052 16.6293 98.5039 17.1733 97.8639 17.568C97.2345 17.952 96.5359 18.144 95.7679 18.144C95.0959 18.144 94.4985 18.0107 93.9759 17.744C93.4532 17.4667 93.0265 17.1253 92.6959 16.72V22.192H90.8719V9.184H92.6959V10.48ZM98.0559 13.552C98.0559 12.944 97.9279 12.4213 97.6719 11.984C97.4265 11.536 97.0959 11.2 96.6799 10.976C96.2745 10.7413 95.8372 10.624 95.3679 10.624C94.9092 10.624 94.4719 10.7413 94.0559 10.976C93.6505 11.2107 93.3199 11.552 93.0639 12C92.8185 12.448 92.6959 12.976 92.6959 13.584C92.6959 14.192 92.8185 14.7253 93.0639 15.184C93.3199 15.632 93.6505 15.9733 94.0559 16.208C94.4719 16.4427 94.9092 16.56 95.3679 16.56C95.8372 16.56 96.2745 16.4427 96.6799 16.208C97.0959 15.9627 97.4265 15.6107 97.6719 15.152C97.9279 14.6933 98.0559 14.16 98.0559 13.552ZM103.54 10.48C103.849 10.0747 104.27 9.73333 104.804 9.456C105.337 9.17867 105.94 9.04 106.612 9.04C107.38 9.04 108.078 9.232 108.708 9.616C109.348 9.98933 109.849 10.5173 110.212 11.2C110.574 11.8827 110.756 12.6667 110.756 13.552C110.756 14.4373 110.574 15.232 110.212 15.936C109.849 16.6293 109.348 17.1733 108.708 17.568C108.078 17.952 107.38 18.144 106.612 18.144C105.94 18.144 105.342 18.0107 104.82 17.744C104.297 17.4667 103.87 17.1253 103.54 16.72V22.192H101.716V9.184H103.54V10.48ZM108.9 13.552C108.9 12.944 108.772 12.4213 108.516 11.984C108.27 11.536 107.94 11.2 107.524 10.976C107.118 10.7413 106.681 10.624 106.212 10.624C105.753 10.624 105.316 10.7413 104.9 10.976C104.494 11.2107 104.164 11.552 103.908 12C103.662 12.448 103.54 12.976 103.54 13.584C103.54 14.192 103.662 14.7253 103.908 15.184C104.164 15.632 104.494 15.9733 104.9 16.208C105.316 16.4427 105.753 16.56 106.212 16.56C106.681 16.56 107.118 16.4427 107.524 16.208C107.94 15.9627 108.27 15.6107 108.516 15.152C108.772 14.6933 108.9 14.16 108.9 13.552Z" fill="black"/>
<defs>
<clipPath id="clip0_35_4">
<rect width="17" height="20" fill="white" transform="translate(0 2)"/>
</clipPath>
</defs>
</svg>
