<svg width="232" height="58" viewBox="0 0 232 58" fill="none" xmlns="http://www.w3.org/2000/svg">
<g clip-path="url(#clip0_2_35)">
<path d="M46.4286 0C44.6429 0 32.1429 3.57143 32.1429 19.6429V32.1429C32.1429 36.0826 35.346 39.2857 39.2857 39.2857H42.8571V53.5714C42.8571 55.5469 44.4531 57.1429 46.4286 57.1429C48.404 57.1429 50 55.5469 50 53.5714V39.2857V26.7857V3.57143C50 1.59598 48.404 0 46.4286 0ZM7.14286 1.78571C7.14286 0.870536 6.46205 0.111607 5.54688 0.0111607C4.6317 -0.0892857 3.81696 0.513393 3.61607 1.39509L0.234375 16.6071C0.078125 17.3103 0 18.0246 0 18.7388C0 23.8616 3.91741 28.0692 8.92857 28.5268V53.5714C8.92857 55.5469 10.5246 57.1429 12.5 57.1429C14.4754 57.1429 16.0714 55.5469 16.0714 53.5714V28.5268C21.0826 28.0692 25 23.8616 25 18.7388C25 18.0246 24.9219 17.3103 24.7656 16.6071L21.3839 1.39509C21.183 0.502232 20.346 -0.0892857 19.442 0.0111607C18.5379 0.111607 17.8571 0.870536 17.8571 1.78571V16.7634C17.8571 17.3661 17.3661 17.8571 16.7634 17.8571C16.1942 17.8571 15.7254 17.4219 15.6696 16.8527L14.2746 1.62946C14.1964 0.703125 13.4263 0 12.5 0C11.5737 0 10.8036 0.703125 10.7254 1.62946L9.34152 16.8527C9.28571 17.4219 8.81696 17.8571 8.24777 17.8571C7.64509 17.8571 7.15402 17.3661 7.15402 16.7634V1.78571H7.14286ZM12.5335 18.75H12.5H12.4665L12.5 18.6719L12.5335 18.75Z" fill="black"/>
</g>
<path d="M70.952 40L65.832 31.104H63.048V40H59.4V17.76H67.08C68.7867 17.76 70.2267 18.0587 71.4 18.656C72.5947 19.2533 73.48 20.0533 74.056 21.056C74.6533 22.0587 74.952 23.1787 74.952 24.416C74.952 25.8667 74.5253 27.1893 73.672 28.384C72.84 29.5573 71.5493 30.3573 69.8 30.784L75.304 40H70.952ZM63.048 28.192H67.08C68.4453 28.192 69.4693 27.8507 70.152 27.168C70.856 26.4853 71.208 25.568 71.208 24.416C71.208 23.264 70.8667 22.368 70.184 21.728C69.5013 21.0667 68.4667 20.736 67.08 20.736H63.048V28.192ZM95.7788 30.752C95.7788 31.4133 95.7361 32.0107 95.6508 32.544H82.1788C82.2854 33.952 82.8081 35.0827 83.7468 35.936C84.6854 36.7893 85.8374 37.216 87.2028 37.216C89.1654 37.216 90.5521 36.3947 91.3628 34.752H95.2987C94.7654 36.3733 93.7948 37.7067 92.3868 38.752C91.0001 39.776 89.2721 40.288 87.2028 40.288C85.5174 40.288 84.0028 39.9147 82.6588 39.168C81.3361 38.4 80.2908 37.3333 79.5228 35.968C78.7761 34.5813 78.4028 32.9813 78.4028 31.168C78.4028 29.3547 78.7654 27.7653 79.4908 26.4C80.2374 25.0133 81.2721 23.9467 82.5948 23.2C83.9388 22.4533 85.4748 22.08 87.2028 22.08C88.8668 22.08 90.3494 22.4427 91.6508 23.168C92.9521 23.8933 93.9654 24.9173 94.6908 26.24C95.4161 27.5413 95.7788 29.0453 95.7788 30.752ZM91.9708 29.6C91.9494 28.256 91.4694 27.1787 90.5308 26.368C89.5921 25.5573 88.4294 25.152 87.0428 25.152C85.7841 25.152 84.7068 25.5573 83.8108 26.368C82.9148 27.1573 82.3814 28.2347 82.2108 29.6H91.9708ZM98.1528 31.168C98.1528 29.3547 98.5154 27.7653 99.2408 26.4C99.9874 25.0133 101.011 23.9467 102.313 23.2C103.614 22.4533 105.107 22.08 106.793 22.08C108.926 22.08 110.686 22.592 112.073 23.616C113.481 24.6187 114.43 26.0587 114.921 27.936H110.985C110.665 27.0613 110.153 26.3787 109.449 25.888C108.745 25.3973 107.859 25.152 106.793 25.152C105.299 25.152 104.105 25.6853 103.209 26.752C102.334 27.7973 101.897 29.2693 101.897 31.168C101.897 33.0667 102.334 34.5493 103.209 35.616C104.105 36.6827 105.299 37.216 106.793 37.216C108.905 37.216 110.302 36.288 110.985 34.432H114.921C114.409 36.224 113.449 37.6533 112.041 38.72C110.633 39.7653 108.883 40.288 106.793 40.288C105.107 40.288 103.614 39.9147 102.313 39.168C101.011 38.4 99.9874 37.3333 99.2408 35.968C98.5154 34.5813 98.1528 32.9813 98.1528 31.168ZM120.412 20.032C119.751 20.032 119.196 19.808 118.748 19.36C118.3 18.912 118.076 18.3573 118.076 17.696C118.076 17.0347 118.3 16.48 118.748 16.032C119.196 15.584 119.751 15.36 120.412 15.36C121.052 15.36 121.596 15.584 122.044 16.032C122.492 16.48 122.716 17.0347 122.716 17.696C122.716 18.3573 122.492 18.912 122.044 19.36C121.596 19.808 121.052 20.032 120.412 20.032ZM122.204 22.368V40H118.556V22.368H122.204ZM130.642 24.96C131.26 24.1493 132.103 23.4667 133.17 22.912C134.236 22.3573 135.442 22.08 136.786 22.08C138.322 22.08 139.719 22.464 140.978 23.232C142.258 23.9787 143.26 25.0347 143.986 26.4C144.711 27.7653 145.074 29.3333 145.074 31.104C145.074 32.8747 144.711 34.464 143.986 35.872C143.26 37.2587 142.258 38.3467 140.978 39.136C139.719 39.904 138.322 40.288 136.786 40.288C135.442 40.288 134.247 40.0213 133.202 39.488C132.156 38.9333 131.303 38.2507 130.642 37.44V48.384H126.994V22.368H130.642V24.96ZM141.362 31.104C141.362 29.888 141.106 28.8427 140.594 27.968C140.103 27.072 139.442 26.4 138.61 25.952C137.799 25.4827 136.924 25.248 135.986 25.248C135.068 25.248 134.194 25.4827 133.362 25.952C132.551 26.4213 131.89 27.104 131.378 28C130.887 28.896 130.642 29.952 130.642 31.168C130.642 32.384 130.887 33.4507 131.378 34.368C131.89 35.264 132.551 35.9467 133.362 36.416C134.194 36.8853 135.068 37.12 135.986 37.12C136.924 37.12 137.799 36.8853 138.61 36.416C139.442 35.9253 140.103 35.2213 140.594 34.304C141.106 33.3867 141.362 32.32 141.362 31.104ZM164.841 30.752C164.841 31.4133 164.799 32.0107 164.713 32.544H151.241C151.348 33.952 151.871 35.0827 152.809 35.936C153.748 36.7893 154.9 37.216 156.265 37.216C158.228 37.216 159.615 36.3947 160.425 34.752H164.361C163.828 36.3733 162.857 37.7067 161.449 38.752C160.063 39.776 158.335 40.288 156.265 40.288C154.58 40.288 153.065 39.9147 151.721 39.168C150.399 38.4 149.353 37.3333 148.585 35.968C147.839 34.5813 147.465 32.9813 147.465 31.168C147.465 29.3547 147.828 27.7653 148.553 26.4C149.3 25.0133 150.335 23.9467 151.657 23.2C153.001 22.4533 154.537 22.08 156.265 22.08C157.929 22.08 159.412 22.4427 160.713 23.168C162.015 23.8933 163.028 24.9173 163.753 26.24C164.479 27.5413 164.841 29.0453 164.841 30.752ZM161.033 29.6C161.012 28.256 160.532 27.1787 159.593 26.368C158.655 25.5573 157.492 25.152 156.105 25.152C154.847 25.152 153.769 25.5573 152.873 26.368C151.977 27.1573 151.444 28.2347 151.273 29.6H161.033ZM181.839 35.456H172.527L170.927 40H167.119L175.087 17.728H179.311L187.279 40H183.439L181.839 35.456ZM180.815 32.48L177.199 22.144L173.551 32.48H180.815ZM194.392 24.96C195.01 24.1493 195.853 23.4667 196.92 22.912C197.986 22.3573 199.192 22.08 200.536 22.08C202.072 22.08 203.469 22.464 204.728 23.232C206.008 23.9787 207.01 25.0347 207.736 26.4C208.461 27.7653 208.824 29.3333 208.824 31.104C208.824 32.8747 208.461 34.464 207.736 35.872C207.01 37.2587 206.008 38.3467 204.728 39.136C203.469 39.904 202.072 40.288 200.536 40.288C199.192 40.288 197.997 40.0213 196.952 39.488C195.906 38.9333 195.053 38.2507 194.392 37.44V48.384H190.744V22.368H194.392V24.96ZM205.112 31.104C205.112 29.888 204.856 28.8427 204.344 27.968C203.853 27.072 203.192 26.4 202.36 25.952C201.549 25.4827 200.674 25.248 199.736 25.248C198.818 25.248 197.944 25.4827 197.112 25.952C196.301 26.4213 195.64 27.104 195.128 28C194.637 28.896 194.392 29.952 194.392 31.168C194.392 32.384 194.637 33.4507 195.128 34.368C195.64 35.264 196.301 35.9467 197.112 36.416C197.944 36.8853 198.818 37.12 199.736 37.12C200.674 37.12 201.549 36.8853 202.36 36.416C203.192 35.9253 203.853 35.2213 204.344 34.304C204.856 33.3867 205.112 32.32 205.112 31.104ZM216.079 24.96C216.698 24.1493 217.541 23.4667 218.607 22.912C219.674 22.3573 220.879 22.08 222.223 22.08C223.759 22.08 225.157 22.464 226.415 23.232C227.695 23.9787 228.698 25.0347 229.423 26.4C230.149 27.7653 230.511 29.3333 230.511 31.104C230.511 32.8747 230.149 34.464 229.423 35.872C228.698 37.2587 227.695 38.3467 226.415 39.136C225.157 39.904 223.759 40.288 222.223 40.288C220.879 40.288 219.685 40.0213 218.639 39.488C217.594 38.9333 216.741 38.2507 216.079 37.44V48.384H212.431V22.368H216.079V24.96ZM226.799 31.104C226.799 29.888 226.543 28.8427 226.031 27.968C225.541 27.072 224.879 26.4 224.047 25.952C223.237 25.4827 222.362 25.248 221.423 25.248C220.506 25.248 219.631 25.4827 218.799 25.952C217.989 26.4213 217.327 27.104 216.815 28C216.325 28.896 216.079 29.952 216.079 31.168C216.079 32.384 216.325 33.4507 216.815 34.368C217.327 35.264 217.989 35.9467 218.799 36.416C219.631 36.8853 220.506 37.12 221.423 37.12C222.362 37.12 223.237 36.8853 224.047 36.416C224.879 35.9253 225.541 35.2213 226.031 34.304C226.543 33.3867 226.799 32.32 226.799 31.104Z" fill="black"/>
<defs>
<clipPath id="clip0_2_35">
<rect width="50" height="57.1429" fill="white"/>
</clipPath>
</defs>
</svg>
